<svg xmlns="http://www.w3.org/2000/svg" viewBox="0 0 306 177" fill="#610b39" xmlns:v="https://vecta.io/nano">
    <path
        d="M49.5 156h77.1c23.7 0 46-12.8 58.2-33.3 0 0 0-.1.1-.1.8-1.1 1.8-1.9 2.8-2.6a20.99 20.99 0 0 0 18.9 11.8c11.6 0 21-9.4 21-21s-9.4-21-21-21c-10.1 0-18.5 7.1-20.5 16.5-3.9 1.5-8.3 4.2-11.8 8.9-.2.2-.3.5-.5.7l-.1.3c-9.8 16.6-27.8 26.9-46.9 26.9H49.5c-2.7-8.4-10.7-14.5-20-14.5-11.6 0-21 9.4-21 21s9.4 21 21 21c9.3-.1 17.2-6.2 20-14.6zm164.9-45.3c0 4.4-3.6 8-8 8s-8-3.6-8-8 3.6-8 8-8 8 3.6 8 8zm-193 38.8c0-4.4 3.6-8 8-8s8 3.6 8 8-3.6 8-8 8-8-3.6-8-8zm252.2-32.7h2.4l10.7 4.9c2.4 1.1 5.1.9 7.3-.5s3.5-3.8 3.5-6.5V60.4c0-2.6-1.3-5-3.5-6.5-2.2-1.4-5-1.6-7.3-.5L276 58.2h-89.1c-8.5-16.8-24-29.7-42.2-34.8-.2-.1-.4-.1-.7-.2l-4.6-.8c-2.3-9.2-10.5-16-20.4-16-11.6 0-21 9.4-21 21s9.4 21 21 21c8.7 0 16.2-5.3 19.4-12.9l3.1.5c15.6 4.5 28.8 16.1 35.1 31.2 1 2.4 3.4 4 6.1 4h94.7c.9 0 1.9-.2 2.7-.6l4.2-1.9V106l-4.2-1.9c-.9-.4-1.8-.6-2.7-.6h-4.2c-2.9-8.1-10.7-14-19.8-14-11.6 0-21 9.4-21 21s9.4 21 21 21c9.6.2 17.6-6 20.2-14.7zM111 27.5c0-4.4 3.6-8 8-8s8 3.6 8 8-3.6 8-8 8-8-3.6-8-8zm134.4 83.2c0-4.4 3.6-8 8-8s8 3.6 8 8-3.6 8-8 8-8-3.6-8-8z"/>
</svg>
