<?xml version="1.0" encoding="UTF-8"?>
<svg enable-background="new 0 0 748 211" version="1.1"
     viewBox="0 0 748 211" xml:space="preserve" xmlns="http://www.w3.org/2000/svg" >
<style type="text/css">
	.st0{fill:#250F3F;}
	.st1{fill:url(#a);}
	.st2{fill:url(#SVGID_00000128459450898731921520000018087586535367552926_);}
	.st3{fill:url(#SVGID_00000060025734680375506710000017430074342163560836_);}
	.st4{fill:url(#SVGID_00000138557151494230334520000014483088199218550932_);}
	.st5{fill:url(#SVGID_00000008110004337135140090000000677333538773315479_);}
	.st6{fill:url(#SVGID_00000158005102518193491220000000124332706401106831_);}
	.st7{fill:url(#SVGID_00000167381510209639397690000012595944393845385123_);}
	.st8{fill:url(#SVGID_00000089570110720156178960000005917884944641452446_);}
	.st9{fill:url(#SVGID_00000000185231057707284870000017397923280539192705_);}
	.st10{fill:url(#SVGID_00000061461981365274071790000011571924028188437949_);}
	.st11{fill:url(#SVGID_00000096751840859078660260000003261192598673466752_);}
	.st12{fill:url(#SVGID_00000132055806045782753190000015571135935858121383_);}
	.st13{fill:url(#SVGID_00000100365944719278656210000005918145920568384959_);}
	.st14{fill:url(#SVGID_00000073714517851368345040000014232734617654069694_);}
	.st15{fill:url(#SVGID_00000089574201026258832420000009568433183932630169_);}
	.st16{fill:url(#SVGID_00000072265313039740969860000002460481053708693399_);}
</style>

	<path class="st0" d="m724.7 59c-3.5-2.3-7.6-3.5-11.8-3.5-3.1 0-6.2 0.7-9 2l-7.9 3.6h-77.8c-10.6-16.3-26.7-28.4-45.4-34-6.2-10.8-17.8-17.8-30.7-17.8-19.4 0-35.2 15.8-35.2 35.2 0 4.1 0.7 7.9 2 11.6-0.5-0.1-1.1-0.1-1.7-0.1-3.6 0-7 1.3-10.2 3.8-0.2 0.1-0.3 0.3-0.5 0.4-1.2 1-2.4 2.1-3.6 3.3-1.3 1.2-2.5 2.5-3.5 3.6-0.1 0.1-0.2 0.3-0.3 0.4l-0.9 1.1c-2.1 2.6-3.3 5.9-3.4 9.3-0.9-0.3-1.8-0.4-2.5-0.5-1.2-0.2-2.4-0.3-3.8-0.3-3.3 0-6.4 0.5-9.2 1.6-2.5-1.5-5.2-2.2-8.1-2.2-1.3 0-2.7 0.2-4 0.5-2.1 0.5-4 1.4-5.7 2.7l-0.1 0.1c-1.2 0.9-2.3 1.8-3.2 2.7-5.3-3.7-12.1-5.7-20.2-5.7-4.9 0-9 0.5-12.5 1.4v-1.7c0-3.7-1.1-7.2-3.3-10-1-1.3-2.1-2.6-3.4-3.9-1.2-1.2-2.5-2.3-4.1-3.6-2.8-2.2-6.3-3.4-9.8-3.4-3.3 0-6.5 1.1-9.2 3-0.2 0.1-0.4 0.3-0.6 0.4-0.4 0.3-0.7 0.6-1.1 0.9l-1.2-0.9c-2.8-2.2-6.3-3.4-9.8-3.4-3.3 0-6.5 1.1-9.2 3-0.2 0.1-0.4 0.3-0.6 0.4-3.1 2.5-5.6 4.9-7.4 7.3-1.5 2-3.3 5.4-3.3 10.1v2c-3.6-1.1-7.5-1.7-11.7-1.7-6.9 0-13.1 1.6-18.4 4.7-0.1 0-0.1-0.1-0.1-0.1-1.5-1.1-3.4-2-6-2.9-3.1-1.1-6.8-1.6-11.8-1.6-6.9 0-13.2 1.4-18.6 4.2-1.9 1-3.7 2.1-5.4 3.4-1.7-1.4-3.6-2.7-5.7-3.8-4.8-2.5-10.5-3.8-16.9-3.8-8.7 0-16.3 2.6-22.4 7.4-2.1-1.9-4.4-3.5-7-4.7-4.1-1.8-8.5-2.8-13-2.8-4.2 0-7.8 0.6-11 1.7-2.2-1.2-4.6-1.9-7-2-0.4-2.9-1.5-5.7-3.4-8-0.3-0.4-0.7-0.8-1.2-1.4-1.7-2-3.8-4-6.1-6.1 2.6-4.9 4.2-10.6 4.2-16.6 0-19.4-15.8-35.2-35.2-35.2-11.5 0-22 5.6-28.5 14.5h-86.5c-15.2 0-27.5 12.4-27.5 27.5v108.2c0 15.2 12.4 27.5 27.5 27.5h20.8c6.5 9 17 14.5 28.5 14.5 19.4 0 35.2-15.8 35.2-35.2 0-8.3-2.9-15.9-7.7-22 0.2-0.1 0.3-0.2 0.5-0.3 1.8-1.2 3.4-2.8 4.8-4.6 1.6 2.1 3.3 3.7 5.2 5 3.1 2.1 6.9 3.1 10.8 3.1h5c6 0 10-2.3 12.3-4.2 0.6-0.5 1.1-1 1.7-1.6 0.5 0.6 1 1.1 1.5 1.5 2.1 1.9 5.7 4.2 11.3 4.2h8.3c2.7 0 4.9-0.5 6.7-1.3 1.8 0.8 4 1.3 6.7 1.3h8.3c4.2 0 7.3-1.3 9.5-2.8 2.2 1.5 5.3 2.8 9.5 2.8h8.3c5.2 0 8.8-2 10.9-3.9 1 0.5 1.9 1 2.9 1.5 5.2 2.2 11.1 3.4 17.6 3.4 4.3 0 7.9-0.3 11-1.1 3.3-0.7 6-1.7 8.3-2.9 1.3-0.7 2.4-1.3 3.3-1.9 6 3.9 13.2 5.8 21.5 5.8 4.7 0 8.8-0.5 12.4-1.5 3.2-0.9 5.4-1.7 7.3-2.6 0.5 0.3 1 0.5 1.6 0.8 5.2 2.2 11.1 3.4 17.6 3.4 4.3 0 7.9-0.3 11-1.1 2.8-0.6 5.1-1.4 7.2-2.4 0.3 0.3 0.6 0.5 1 0.8 2.7 1.9 5.7 2.9 8.9 2.9 2.9 0 5.3-0.9 6.8-1.5 0.1 0 0.2-0.1 0.3-0.1l4.6-2.1 1.2 0.9c2.7 1.9 5.7 2.9 8.9 2.9 2.9 0 5.3-0.9 6.8-1.5 0.1 0 0.2-0.1 0.3-0.1l6-2.8c3.6 2.3 8.6 4.2 15.3 4.2h1.2c-3.1 5.2-4.8 11.3-4.8 17.8 0 19.4 15.8 35.2 35.2 35.2 11.5 0 22-5.6 28.5-14.5h68.6c24 0 46.9-10.8 62.3-28.9 5.2 3 11.3 4.7 17.6 4.7 9 0 17.3-3.4 23.5-9 6.2 5.6 14.5 9 23.5 9 10.4 0 19.8-4.4 26.3-11.8l1 0.5c2.9 1.3 5.9 2 9 2 4.2 0 8.3-1.2 11.8-3.5 6.3-4 10-10.9 10-18.4v-54c0.3-7.5-3.4-14.4-9.7-18.4z"/>
	<linearGradient id="a" x1="102.02" x2="102.02" y1="109.54" y2="317.45" gradientUnits="userSpaceOnUse">
		<stop stop-color="#A61F5F" offset="0"/>
		<stop stop-color="#580932" offset=".5531"/>
		<stop stop-color="#250F3F" offset="1"/>
	</linearGradient>
	<path class="st1" d="m90.1 187.5c11.6 0 21-9.4 21-21s-9.4-21-21-21c-9.3 0-17.3 6.1-20 14.5h-29.3c-0.2 0-0.4-0.2-0.4-0.4v-108.2c0-0.2 0.2-0.4 0.4-0.4h94.8c2.7 8.4 10.7 14.5 20 14.5 11.6 0 21-9.4 21-21s-9.4-21-21-21c-9.3 0-17.3 6.1-20 14.5h-94.8c-7.4 0-13.4 6-13.4 13.4v108.2c0 7.4 6 13.4 13.4 13.4h29.3c2.7 8.4 10.6 14.5 20 14.5zm73.5-143c0 4.4-3.6 8-8 8s-8-3.6-8-8 3.6-8 8-8 8 3.6 8 8zm-81.6 122c0-4.4 3.6-8 8-8s8 3.6 8 8-3.6 8-8 8-8-3.6-8-8z"/>


			<linearGradient id="l" x1="540.95" x2="540.95" y1="109.54" y2="317.45" gradientUnits="userSpaceOnUse">
			<stop stop-color="#A61F5F" offset="0"/>
			<stop stop-color="#580932" offset=".5531"/>
			<stop stop-color="#250F3F" offset="1"/>
		</linearGradient>
		<path d="m472.5 173h77.1c23.7 0 46-12.8 58.2-33.3 0 0 0-0.1 0.1-0.1 0.8-1.1 1.8-1.9 2.8-2.6 3.4 7 10.6 11.8 18.9 11.8 11.6 0 21-9.4 21-21s-9.4-21-21-21c-10.1 0-18.5 7.1-20.5 16.5-3.9 1.5-8.3 4.2-11.8 8.9-0.2 0.2-0.3 0.5-0.5 0.7l-0.1 0.3c-9.8 16.6-27.8 26.9-46.9 26.9h-77.1c-2.7-8.4-10.7-14.5-20-14.5-11.6 0-21 9.4-21 21s9.4 21 21 21c9.1-0.1 17-6.2 19.8-14.6zm165-45.3c0 4.4-3.6 8-8 8s-8-3.6-8-8 3.6-8 8-8 8 3.6 8 8zm-193 38.8c0-4.4 3.6-8 8-8s8 3.6 8 8-3.6 8-8 8-8-3.6-8-8z" fill="url(#l)"/>

			<linearGradient id="n" x1="620.81" x2="620.81" y1="109.54" y2="317.45" gradientUnits="userSpaceOnUse">
			<stop stop-color="#A61F5F" offset="0"/>
			<stop stop-color="#580932" offset=".5531"/>
			<stop stop-color="#250F3F" offset="1"/>
		</linearGradient>
		<path d="m696.6 133.8h2.4l10.7 4.9c2.4 1.1 5.1 0.9 7.3-0.5s3.5-3.8 3.5-6.5v-54.3c0-2.6-1.3-5-3.5-6.5-2.2-1.4-5-1.6-7.3-0.5l-10.7 4.8h-89.1c-8.5-16.8-24-29.7-42.2-34.8-0.2-0.1-0.4-0.1-0.7-0.2l-4.6-0.8c-2.3-9.2-10.5-16-20.4-16-11.6 0-21 9.4-21 21s9.4 21 21 21c8.7 0 16.2-5.3 19.4-12.9l3.1 0.5c15.6 4.5 28.8 16.1 35.1 31.2 1 2.4 3.4 4 6.1 4h94.7c0.9 0 1.9-0.2 2.7-0.6l4.2-1.9v37.3l-4.2-1.9c-0.9-0.4-1.8-0.6-2.7-0.6h-4.2c-2.9-8.1-10.7-14-19.8-14-11.6 0-21 9.4-21 21s9.4 21 21 21c9.6 0.2 17.6-6 20.2-14.7zm-162.5-89.3c0-4.4 3.6-8 8-8s8 3.6 8 8-3.6 8-8 8-8-3.6-8-8zm134.4 83.2c0-4.4 3.6-8 8-8s8 3.6 8 8-3.6 8-8 8-8-3.6-8-8z" fill="url(#n)"/>



			<linearGradient id="k" x1="122.9" x2="122.9" y1="109.54" y2="317.45" gradientUnits="userSpaceOnUse">
			<stop stop-color="#A61F5F" offset="0"/>
			<stop stop-color="#580932" offset=".5531"/>
			<stop stop-color="#250F3F" offset="1"/>
		</linearGradient>
		<path d="m96 129.8c-1.2-2.2-2.4-5-3.6-8.3-1.2-3.4-2.4-7-3.5-10.8-1.1-3.9-2.1-7.7-3-11.4-0.9-3.8-1.5-7.2-2-10.3s-0.8-5.5-0.8-7.2c0-0.7 0.1-1.3 0.4-1.7 0.6-0.9 1.4-1.8 2.3-2.7s2-1.9 3.2-2.9c0.4-0.3 0.8-0.5 1.1-0.5 0.4 0 0.7 0.2 1.1 0.5 1.3 1 2.4 2 3.2 2.9 0.9 0.9 1.6 1.8 2.3 2.7 0.3 0.4 0.4 1 0.4 1.8v-0.2c0 1.8 0.2 4.2 0.7 7.2s1.1 6.4 1.9 10 1.6 7.2 2.5 10.7 1.8 6.6 2.7 9.3h0.2c1.5-3.6 2.8-7.6 4.1-11.8s2.5-8.6 3.6-13 2.1-8.7 3.1-12.9c0.3-1.2 0.8-2.1 1.5-2.5 0.7-0.5 1.8-0.7 3.4-0.7h4.9c1.4 0 2.4 0.2 3.1 0.6s1.2 1.3 1.5 2.6c0.7 3.1 1.5 6.4 2.4 9.9s1.8 7 2.8 10.4 1.9 6.7 2.9 9.7 1.9 5.6 2.8 7.7h0.2c1.1-2.6 2.2-5.6 3.1-9.1s1.7-7 2.3-10.7c0.6-3.6 1.1-7 1.5-10.1 0.3-3.1 0.5-5.6 0.5-7.3v0.2c0-0.8 0.1-1.4 0.4-1.8 1.3-1.8 3.1-3.7 5.4-5.6 0.4-0.3 0.8-0.5 1.1-0.5s0.6 0.2 1.1 0.5c1.2 1 2.3 2 3.1 2.9s1.6 1.8 2.2 2.7c0.3 0.4 0.4 1 0.4 1.7 0 2.3-0.3 5-0.8 8.2s-1.2 6.6-2.1 10.2-1.9 7.2-3 10.8-2.2 7-3.4 10.1-2.4 5.8-3.5 7.9c-1 1.8-1.8 3-2.6 3.7-0.8 0.6-1.9 1-3.3 1h-5c-1.2 0-2.2-0.3-3.1-0.8-0.8-0.5-1.7-1.6-2.6-3-0.7-1.1-1.5-2.7-2.3-4.8-0.9-2.1-1.8-4.3-2.6-6.7-0.9-2.4-1.7-4.8-2.4-7-0.7-2.3-1.2-4.2-1.5-5.8-0.4-1.8-0.7-3.5-1-5.2s-0.4-3-0.5-3.9h-0.3c-0.1 0.9-0.2 2.2-0.5 3.9s-0.6 3.4-1 5.2-0.9 3.8-1.6 6.1-1.4 4.6-2.2 6.9-1.6 4.5-2.4 6.4c-0.8 2-1.6 3.5-2.3 4.7-0.8 1.3-1.6 2.3-2.6 3-0.9 0.6-2.2 1-3.9 1h-4.6c-1.4 0-2.5-0.3-3.2-0.8-0.7-0.6-1.4-1.6-2.2-3.1zm-12.8-48.2v0.2-0.2zm79.4 0v0.2-0.2z" fill="url(#k)"/>

			<linearGradient id="b" x1="174.87" x2="174.87" y1="109.54" y2="317.45" gradientUnits="userSpaceOnUse">
			<stop stop-color="#A61F5F" offset="0"/>
			<stop stop-color="#580932" offset=".5531"/>
			<stop stop-color="#250F3F" offset="1"/>
		</linearGradient>
		<path d="m166.6 78.4c0-0.4 0.1-0.7 0.3-0.9 0.2-0.3 0.5-0.6 0.9-1.1 0.8-0.9 1.6-1.8 2.6-2.7 1-1 2-1.9 3-2.8 0.6-0.5 1.1-0.8 1.5-0.8s0.8 0.3 1.5 0.8c2.2 1.9 4.1 3.7 5.6 5.5 0.4 0.4 0.6 0.8 0.9 1 0.2 0.3 0.3 0.6 0.3 1s-0.1 0.7-0.3 0.9c-0.2 0.3-0.5 0.6-0.9 1.1-0.7 0.8-1.6 1.7-2.6 2.7s-2 1.9-3 2.7c-0.4 0.3-0.7 0.5-0.9 0.6s-0.4 0.1-0.6 0.1-0.4 0-0.6-0.1-0.5-0.3-1-0.6c-1.1-0.9-2.1-1.8-3-2.7-0.9-1-1.8-1.9-2.6-2.8-0.4-0.4-0.6-0.8-0.9-1-0.1-0.2-0.2-0.5-0.2-0.9zm14.6 53c0 0.8-0.2 1.4-0.5 1.7s-0.9 0.5-1.7 0.5h-8.3c-0.8 0-1.4-0.2-1.7-0.5s-0.5-0.9-0.5-1.7v-37.2c0-0.8 0.2-1.4 0.5-1.7s0.9-0.5 1.7-0.5h8.3c0.8 0 1.4 0.2 1.7 0.5s0.5 0.9 0.5 1.7v37.2z" fill="url(#b)"/>

			<linearGradient id="i" x1="210.25" x2="210.25" y1="109.54" y2="317.45" gradientUnits="userSpaceOnUse">
			<stop stop-color="#A61F5F" offset="0"/>
			<stop stop-color="#580932" offset=".5531"/>
			<stop stop-color="#250F3F" offset="1"/>
		</linearGradient>
		<path d="m230.3 107.7v23.7c0 0.8-0.2 1.4-0.5 1.7s-0.9 0.5-1.7 0.5h-8.3c-0.8 0-1.4-0.2-1.7-0.5s-0.5-0.9-0.5-1.7v-21.6c0-2.9-0.6-5.1-1.9-6.4-1.2-1.4-2.9-2-5.1-2-2.1 0-3.8 0.5-4.9 1.4s-2 2.1-2.7 3.5v25.2c0 0.8-0.2 1.4-0.5 1.7s-0.9 0.5-1.7 0.5h-8.3c-0.8 0-1.4-0.2-1.7-0.5s-0.5-0.9-0.5-1.7v-34c0-0.6 0.1-1.1 0.4-1.5 0.6-0.8 1.2-1.5 2-2.3s1.8-1.6 2.9-2.5c0.4-0.3 0.7-0.4 1-0.4s0.6 0.1 1 0.4c1.1 0.9 2.1 1.7 2.9 2.6s1.5 1.6 2.1 2.5h0.2c0.5-0.6 1.1-1.3 2.1-2.1 0.9-0.8 2.2-1.5 3.9-2.1s3.8-0.9 6.4-0.9c2.5 0 5 0.5 7.3 1.5s4.2 2.8 5.7 5.2c1.4 2.3 2.1 5.6 2.1 9.8z" fill="url(#i)"/>

			<linearGradient id="e" x1="257.01" x2="257.01" y1="109.54" y2="317.45" gradientUnits="userSpaceOnUse">
			<stop stop-color="#A61F5F" offset="0"/>
			<stop stop-color="#580932" offset=".5531"/>
			<stop stop-color="#250F3F" offset="1"/>
		</linearGradient>
		<path d="m259.5 134.6c-4.6 0-8.5-0.7-11.9-2.2s-6-3.8-7.9-6.9-2.8-7.1-2.8-12c0-7.4 1.9-13 5.7-16.7 3.8-3.8 8.8-5.7 15.1-5.7 4.1 0 7.5 0.7 10.4 2.2 2.8 1.5 5 3.5 6.4 6 1.5 2.6 2.2 5.5 2.2 8.8 0 3.2-0.8 5.5-2.5 6.7-1.6 1.3-4.1 1.9-7.2 1.9h-17.4c0.2 2.8 1.2 4.9 3.1 6.4 1.8 1.5 4.3 2.2 7.4 2.2 2.5 0 4.5-0.4 6-1.1s2.5-1.3 3.1-1.8c0.5-0.4 1.1-0.6 1.7-0.5 0.5 0 1.2 0.1 2.2 0.3s1.9 0.6 2.9 1.1c0.7 0.4 1 0.8 1 1.5 0 0.4-0.1 0.9-0.2 1.5-0.1 0.4-0.2 0.9-0.4 1.6s-0.4 1.4-0.7 2c-0.2 0.3-0.4 0.6-0.8 0.9-0.5 0.4-1.4 0.9-2.6 1.5s-2.8 1.2-4.9 1.6-4.7 0.7-7.9 0.7zm-9.9-26.2h13.2c1.4 0 2.1-0.6 2.1-1.9 0-1.9-0.6-3.5-1.8-4.8s-3-2-5.4-2c-2.6 0-4.5 0.8-5.8 2.5s-2.1 3.7-2.3 6.2z" fill="url(#e)"/>

			<linearGradient id="f" x1="299.53" x2="299.53" y1="109.54" y2="317.45" gradientUnits="userSpaceOnUse">
			<stop stop-color="#A61F5F" offset="0"/>
			<stop stop-color="#580932" offset=".5531"/>
			<stop stop-color="#250F3F" offset="1"/>
		</linearGradient>
		<path d="m304.2 91c3.2 0 5.6 0.3 7 0.8 1.5 0.5 2.4 0.9 2.8 1.2 0.6 0.4 1.1 0.9 1.4 1.5 0.2 0.3 0.4 0.8 0.6 1.5s0.4 1.5 0.5 2.4c0.1 0.7 0.1 1.2 0 1.4-0.1 0.3-0.4 0.6-1 1s-1.4 0.8-2.1 1.2c-0.8 0.3-1.4 0.6-1.9 0.7-0.4 0.1-0.7 0.1-0.9 0.1-0.2-0.1-0.5-0.2-0.9-0.5s-1-0.6-1.8-1-1.9-0.5-3.2-0.5c-1.8 0-3.4 0.4-5 1.3s-2.9 2.2-3.9 3.9-1.5 3.9-1.5 6.5c0 3.9 1 6.9 3.1 9 2 2.1 4.8 3.2 8.2 3.2 1.8 0 3.2-0.2 4.4-0.5 1.2-0.4 2.1-0.7 2.8-1.1 0.5-0.3 1-0.4 1.2-0.2 0.3 0.1 0.5 0.4 0.7 0.8l3 6.7c0.3 0.7 0.1 1.2-0.5 1.5-1 0.5-2.6 1.1-4.9 1.7s-5.1 1-8.5 1c-6.8 0-12.2-1.8-16.3-5.4s-6.1-9-6.1-16.2c0-4.6 0.9-8.5 2.8-11.8s4.5-5.8 7.9-7.5c3.4-1.8 7.4-2.7 12.1-2.7z" fill="url(#f)"/>

			<linearGradient id="j" x1="339.96" x2="339.96" y1="109.54" y2="317.45" gradientUnits="userSpaceOnUse">
			<stop stop-color="#A61F5F" offset="0"/>
			<stop stop-color="#580932" offset=".5531"/>
			<stop stop-color="#250F3F" offset="1"/>
		</linearGradient>
		<path d="m342.5 134.6c-4.6 0-8.5-0.7-11.9-2.2s-6-3.8-7.9-6.9-2.8-7.1-2.8-12c0-7.4 1.9-13 5.7-16.7 3.8-3.8 8.8-5.7 15.1-5.7 4.1 0 7.5 0.7 10.4 2.2 2.8 1.5 5 3.5 6.4 6 1.5 2.6 2.2 5.5 2.2 8.8 0 3.2-0.8 5.5-2.5 6.7-1.6 1.3-4.1 1.9-7.2 1.9h-17.4c0.2 2.8 1.2 4.9 3.1 6.4 1.8 1.5 4.3 2.2 7.4 2.2 2.5 0 4.5-0.4 6-1.1s2.5-1.3 3.1-1.8c0.5-0.4 1.1-0.6 1.7-0.5 0.5 0 1.2 0.1 2.2 0.3s1.9 0.6 2.9 1.1c0.7 0.4 1 0.8 1 1.5 0 0.4-0.1 0.9-0.2 1.5-0.1 0.4-0.2 0.9-0.4 1.6s-0.4 1.4-0.7 2c-0.2 0.3-0.4 0.6-0.8 0.9-0.5 0.4-1.4 0.9-2.6 1.5s-2.8 1.2-4.9 1.6-4.7 0.7-7.9 0.7zm-10-26.2h13.2c1.4 0 2.1-0.6 2.1-1.9 0-1.9-0.6-3.5-1.8-4.8s-3-2-5.4-2c-2.6 0-4.5 0.8-5.8 2.5s-2 3.7-2.3 6.2z" fill="url(#j)"/>

			<linearGradient id="o" x1="373.77" x2="373.77" y1="109.54" y2="317.45" gradientUnits="userSpaceOnUse">
			<stop stop-color="#A61F5F" offset="0"/>
			<stop stop-color="#580932" offset=".5531"/>
			<stop stop-color="#250F3F" offset="1"/>
		</linearGradient>
		<path d="m371.8 134.4c-0.6 0.2-1 0.4-1.2 0.4s-0.5-0.1-0.8-0.3c-0.6-0.4-1.3-1.5-2.1-3.2s-1.2-4.3-1.2-7.8v-46.9c0-0.6 0.1-1.1 0.4-1.5 1.1-1.5 2.8-3.1 5-4.8 0.4-0.3 0.7-0.4 1-0.4 0.4 0 0.7 0.1 1 0.4 1.2 0.9 2.1 1.7 2.9 2.5s1.5 1.6 2 2.3c0.3 0.4 0.4 0.9 0.4 1.5v44.4c0 1.8 0.1 3.3 0.4 4.6s0.6 2.3 1.1 3c0.5 0.9 0.3 1.5-0.5 1.9l-8.4 3.9z" fill="url(#o)"/>

			<linearGradient id="d" x1="395.61" x2="395.61" y1="109.54" y2="317.45" gradientUnits="userSpaceOnUse">
			<stop stop-color="#A61F5F" offset="0"/>
			<stop stop-color="#580932" offset=".5531"/>
			<stop stop-color="#250F3F" offset="1"/>
		</linearGradient>
		<path d="m393.6 134.4c-0.6 0.2-1 0.4-1.2 0.4s-0.5-0.1-0.8-0.3c-0.6-0.4-1.3-1.5-2.1-3.2s-1.2-4.3-1.2-7.8v-46.9c0-0.6 0.1-1.1 0.4-1.5 1.1-1.5 2.8-3.1 5-4.8 0.4-0.3 0.7-0.4 1-0.4 0.4 0 0.7 0.1 1 0.4 1.2 0.9 2.1 1.7 2.9 2.5s1.5 1.6 2 2.3c0.3 0.4 0.4 0.9 0.4 1.5v44.4c0 1.8 0.1 3.3 0.4 4.6s0.6 2.3 1.1 3c0.5 0.9 0.3 1.5-0.5 1.9l-8.4 3.9z" fill="url(#d)"/>

			<linearGradient id="p" x1="426.97" x2="426.97" y1="109.54" y2="317.45" gradientUnits="userSpaceOnUse">
			<stop stop-color="#A61F5F" offset="0"/>
			<stop stop-color="#580932" offset=".5531"/>
			<stop stop-color="#250F3F" offset="1"/>
		</linearGradient>
		<path d="m420.9 134.6c-4 0-7.1-1.1-9.5-3.3-2.3-2.2-3.5-5.3-3.5-9.2 0-2 0.4-3.9 1.1-5.7 0.7-1.7 2-3.3 3.9-4.6s4.4-2.4 7.8-3.2c3.3-0.8 7.6-1.3 12.8-1.4 0-2.5-0.6-4.2-1.8-5.3s-3.1-1.6-5.5-1.6c-2.2 0-4 0.4-5.4 1.1-1.4 0.8-2.3 1.3-2.6 1.5-0.4 0.3-0.8 0.4-1.4 0.4-0.7-0.1-1.5-0.3-2.3-0.6s-1.7-0.6-2.7-0.9c-0.1-0.1-0.3-0.1-0.4-0.3s-0.3-0.3-0.3-0.5v-0.5c0-0.2 0.1-0.6 0.2-1.1s0.3-1.2 0.5-2 0.4-1.4 0.6-1.8c0.2-0.5 0.6-0.9 1.2-1.3 0.5-0.4 1.9-1 4.2-1.8s5.7-1.3 10.1-1.3c12.1 0 18.2 5.9 18.2 17.7v22.9c0 0.5-0.1 1-0.4 1.3s-0.8 0.5-1.4 0.5h-6.1c-0.4 0-0.8-0.1-1.2-0.2-0.3-0.1-0.7-0.4-1-0.7l-2.5-3.2h-0.3c-1.2 1.8-2.9 3.1-5 3.9-2.2 0.7-4.6 1.2-7.3 1.2zm4.5-9.5c2.5 0 4.4-0.6 5.6-1.9 1.3-1.3 2.1-2.6 2.4-3.9v-4.5c-3.8 0-6.6 0.3-8.5 0.9s-3.1 1.3-3.7 2.3c-0.6 0.9-0.9 1.9-0.9 3 0 1.6 0.5 2.7 1.5 3.3 0.9 0.5 2.1 0.8 3.6 0.8z" fill="url(#p)"/>

			<linearGradient id="m" x1="468" x2="468" y1="109.54" y2="317.45" gradientUnits="userSpaceOnUse">
			<stop stop-color="#A61F5F" offset="0"/>
			<stop stop-color="#580932" offset=".5531"/>
			<stop stop-color="#250F3F" offset="1"/>
		</linearGradient>
		<path d="m467.3 99.7h0.2c2-5.6 5.7-8.4 10.9-8.4 0.7 0 1.2 0 1.7 0.1 0.4 0.1 0.7 0.1 0.9 0.2 0.4 0.1 0.6 0.4 0.6 0.9v9.8c0 0.8-0.5 1.1-1.5 0.7-0.3-0.1-0.8-0.3-1.4-0.4s-1.5-0.2-2.5-0.2c-2.8 0-5 1-6.5 3.1-1.6 2-2.4 4.8-2.4 8.3v17.7c0 0.8-0.2 1.4-0.5 1.7s-0.9 0.5-1.7 0.5h-8.3c-0.8 0-1.4-0.2-1.7-0.5s-0.5-0.9-0.5-1.7v-34c0-0.6 0.1-1.1 0.4-1.5 0.6-0.8 1.2-1.5 2-2.3s1.8-1.6 2.9-2.5c0.2-0.2 0.4-0.3 0.6-0.3 0.2-0.1 0.4-0.1 0.6-0.1 0.4 0 0.8 0.1 1.1 0.4 2.2 1.8 3.8 3.3 4.7 4.5 0.2 0.3 0.4 0.7 0.4 1.1v2.9z" fill="url(#m)"/>

			<linearGradient id="g" x1="485.64" x2="485.64" y1="109.54" y2="317.45" gradientUnits="userSpaceOnUse">
			<stop stop-color="#A61F5F" offset="0"/>
			<stop stop-color="#580932" offset=".5531"/>
			<stop stop-color="#250F3F" offset="1"/>
		</linearGradient>
		<path d="m476.6 126.2c0-0.4 0.1-0.7 0.4-1s0.6-0.7 0.9-1.2c0.8-0.9 1.8-1.9 2.9-3l3.3-3c0.7-0.6 1.2-0.9 1.6-0.9 0.3 0 0.9 0.3 1.6 0.9 2.4 2 4.4 4 6.1 6 0.4 0.5 0.7 0.8 0.9 1.1s0.4 0.6 0.4 1-0.1 0.7-0.4 1-0.6 0.7-1 1.2c-0.8 0.9-1.7 1.9-2.8 2.9s-2.2 2-3.3 3c-0.7 0.6-1.2 0.9-1.6 0.9-0.3 0-0.9-0.3-1.7-0.9-1.2-1-2.3-2-3.3-3s-2-2-2.8-3c-0.4-0.5-0.7-0.8-0.9-1.1s-0.3-0.5-0.3-0.9z" fill="url(#g)"/>

			<linearGradient id="c" x1="507.17" x2="507.17" y1="109.54" y2="317.45" gradientUnits="userSpaceOnUse">
			<stop stop-color="#A61F5F" offset="0"/>
			<stop stop-color="#580932" offset=".5531"/>
			<stop stop-color="#250F3F" offset="1"/>
		</linearGradient>
		<path d="m498.9 78.4c0-0.4 0.1-0.7 0.3-0.9 0.2-0.3 0.5-0.6 0.9-1.1 0.8-0.9 1.6-1.8 2.6-2.7 1-1 2-1.9 3-2.8 0.6-0.5 1.1-0.8 1.5-0.8s0.8 0.3 1.5 0.8c2.2 1.9 4.1 3.7 5.6 5.5 0.4 0.4 0.6 0.8 0.9 1 0.2 0.3 0.3 0.6 0.3 1s-0.1 0.7-0.3 0.9c-0.2 0.3-0.5 0.6-0.9 1.1-0.7 0.8-1.6 1.7-2.6 2.7s-2 1.9-3 2.7c-0.4 0.3-0.7 0.5-0.9 0.6s-0.4 0.1-0.6 0.1-0.4 0-0.6-0.1-0.5-0.3-1-0.6c-1.1-0.9-2.1-1.8-3-2.7-0.9-1-1.8-1.9-2.6-2.8-0.4-0.4-0.6-0.8-0.9-1-0.1-0.2-0.2-0.5-0.2-0.9zm14.6 53c0 0.8-0.2 1.4-0.5 1.7s-0.9 0.5-1.7 0.5h-8.3c-0.8 0-1.4-0.2-1.7-0.5s-0.5-0.9-0.5-1.7v-37.2c0-0.8 0.2-1.4 0.5-1.7s0.9-0.5 1.7-0.5h8.3c0.8 0 1.4 0.2 1.7 0.5s0.5 0.9 0.5 1.7v37.2z" fill="url(#c)"/>

			<linearGradient id="h" x1="542.59" x2="542.59" y1="109.54" y2="317.45" gradientUnits="userSpaceOnUse">
			<stop stop-color="#A61F5F" offset="0"/>
			<stop stop-color="#580932" offset=".5531"/>
			<stop stop-color="#250F3F" offset="1"/>
		</linearGradient>
		<path d="m542.4 134.6c-6.8 0-12.2-1.8-16.2-5.4s-6-9-6-16.2c0-7.3 2.1-12.8 6.2-16.5 4.1-3.6 9.6-5.5 16.5-5.5 6.6 0 12 1.8 16 5.4s6 8.9 6 15.8c0 7.3-2 12.8-6 16.6s-9.5 5.8-16.5 5.8zm0.4-9.9c3 0 5.2-0.9 6.7-2.8s2.3-5 2.3-9.5c0-4.3-0.8-7.3-2.3-9s-3.8-2.6-6.8-2.6c-2.9 0-5.2 0.9-6.8 2.8-1.7 1.9-2.5 4.9-2.5 9.1 0 4.4 0.8 7.5 2.4 9.3 1.5 1.9 3.9 2.7 7 2.7z" fill="url(#h)"/>


</svg>
